<?xml version="1.0" standalone="no"?>
<!DOCTYPE svg PUBLIC "-//W3C//DTD SVG 20010904//EN"
 "http://www.w3.org/TR/2001/REC-SVG-20010904/DTD/svg10.dtd">
<svg version="1.0" xmlns="http://www.w3.org/2000/svg"
 width="512.000000pt" height="512.000000pt" viewBox="0 0 512.000000 512.000000"
 preserveAspectRatio="xMidYMid meet">
<metadata>
Created by potrace 1.11, written by Peter Selinger 2001-2013
</metadata>
<g transform="translate(0.000000,512.000000) scale(0.100000,-0.100000)"
fill="#000000" stroke="none">
<path d="M226 5033 c-198 -58 -280 -270 -180 -464 9 -19 34 -56 55 -82 l38
-48 -24 -67 c-83 -239 -37 -504 126 -718 126 -167 285 -280 514 -364 140 -52
216 -108 280 -204 68 -104 86 -173 90 -348 4 -149 17 -240 52 -358 50 -168
130 -309 244 -431 54 -57 60 -69 64 -114 5 -61 14 -154 20 -217 11 -106 15
-146 20 -208 3 -36 8 -83 10 -105 2 -22 7 -71 11 -109 11 -115 46 -171 132
-215 125 -63 291 17 318 154 5 22 7 42 7 45 -1 3 -5 50 -8 105 -4 54 -8 106
-10 114 -2 9 -6 52 -9 96 -4 44 -9 99 -12 122 -5 40 -4 42 18 36 13 -3 93 -7
178 -9 155 -3 155 -3 153 -26 -3 -48 -15 -184 -18 -218 -9 -81 -18 -197 -18
-220 0 -55 24 -110 67 -153 90 -90 225 -91 320 -4 37 34 64 102 71 177 3 36 7
85 10 110 2 25 7 74 10 110 3 36 7 85 10 110 3 25 7 72 10 105 6 74 16 160 18
161 23 8 174 103 235 148 46 34 107 77 134 97 161 115 392 87 537 -64 l34 -36
-29 -26 c-77 -72 -202 -137 -345 -178 -108 -31 -142 -49 -173 -90 -59 -77 -71
-158 -35 -237 37 -82 94 -123 187 -136 50 -6 51 -7 45 -33 -33 -121 44 -247
170 -276 48 -11 63 -10 144 10 238 60 431 170 598 340 87 89 160 195 198 290
9 22 17 33 17 25 1 -8 3 -24 5 -36 9 -47 11 -190 3 -252 -51 -397 -310 -730
-690 -886 -85 -35 -213 -71 -293 -82 -113 -16 -157 -47 -174 -124 -8 -37 -7
-52 8 -86 27 -61 70 -87 147 -89 188 -4 458 50 639 128 516 222 857 654 947
1202 24 145 17 1408 -8 1590 -47 331 -129 580 -277 840 -299 523 -685 813
-1092 818 -150 2 -202 -5 -315 -43 -286 -96 -524 -347 -669 -705 -44 -110 -52
-125 -74 -137 -39 -20 -73 -19 -108 5 -29 19 -37 34 -52 92 -52 202 -123 370
-210 499 -26 38 -47 71 -47 74 0 3 15 23 33 46 45 55 85 142 95 207 16 104
-18 199 -95 270 -101 93 -220 109 -353 47 -42 -19 -92 -49 -111 -66 l-36 -32
-87 35 c-326 132 -704 132 -1008 1 l-82 -35 -40 32 c-113 89 -233 121 -340 90z"/>
</g>
</svg>
